/* XPM */
static char *_1922305585a4fc4bf282d706c3aa5b2XTJe9qgkZpr0Kr10[] = {
/* columns rows colors chars-per-pixel */
"50 50 107 2 ",
"   c black",
".  c #0D0D0C",
"X  c #151412",
"o  c #181715",
"O  c #201F1D",
"+  c #24231F",
"@  c #242323",
"#  c #282623",
"$  c #2A2926",
"%  c #2C2B2B",
"&  c #302F2D",
"*  c #32312E",
"=  c #2D2E32",
"-  c #343433",
";  c #393636",
":  c #393836",
">  c #353639",
",  c #393738",
"<  c #373938",
"1  c #3D3C3A",
"2  c #413F3D",
"3  c #63451B",
"4  c #42413F",
"5  c #3E3F41",
"6  c #413F40",
"7  c #444343",
"8  c #484645",
"9  c #494846",
"0  c #444549",
"q  c #47484C",
"w  c #4D4C4B",
"e  c #504F4D",
"r  c #52514E",
"t  c #4E4F53",
"y  c #4F5152",
"u  c #545453",
"i  c #585755",
"p  c #5A5956",
"a  c #565759",
"s  c #57585C",
"d  c #5C5C5B",
"f  c #605E5D",
"g  c #62615E",
"h  c #646463",
"j  c #686765",
"k  c #6A6967",
"l  c #646569",
"z  c #67686A",
"x  c #6C6C6B",
"c  c #716F6C",
"v  c #73726F",
"b  c #6F7171",
"n  c #747473",
"m  c #787775",
"M  c #767877",
"N  c #797876",
"B  c #7B7A76",
"V  c #7C7875",
"C  c #7C7877",
"Z  c #7C7B77",
"A  c #777978",
"S  c #797979",
"D  c #7E7D7B",
"F  c #817D7C",
"G  c #807F7D",
"H  c #B9C03B",
"J  c #82817F",
"K  c #84837F",
"L  c #817F80",
"P  c #818181",
"I  c #838383",
"U  c #848381",
"Y  c #868583",
"T  c #858585",
"R  c #868686",
"E  c #888785",
"W  c #8A8985",
"Q  c #888888",
"!  c #8C8B89",
"~  c #8C8B8A",
"^  c #8E8D8B",
"/  c #8F8E8C",
"(  c gray56",
")  c #928E8D",
"_  c #91908E",
"`  c #92918F",
"'  c #909090",
"]  c gray57",
"[  c #969593",
"{  c #989795",
"}  c #999798",
"|  c #989898",
" . c #9B999A",
".. c #9D9C9A",
"X. c #A1A09E",
"o. c #A2A19F",
"O. c #A3A2A0",
"+. c #A3A3A1",
"@. c #A4A3A1",
"#. c #A6A5A3",
"$. c #ADACAA",
"%. c gray68",
"&. c #B4B3B1",
"*. c #BEBDBB",
"=. c #CECDCB",
"-. c #D4D3D1",
";. c gray84",
/* pixels */
"u 7 i a 8 w I T Q Q I ' I ' ( b b [ ` D #.T p $.X.U J X.X.@.E ) ) ) W X.X.W ` ..N ) ` N J ` ` J { 1 ",
"u a t h x 7 6 w h w y x f s h f M g u w g h Z k g p x v g p x f j g p d i 9 g x p v d r d : 4 g u * ",
"n u 5 l g x d 7 i y 5 d a y p a r f g 9 j j c g n p f Z 7 h v p 4 g d 4 j w 4 g i k g r $ + g o g 4 ",
"% $ < % 1 % a y 7 i s i d h < d i r a j 9 : r w f G g i g 9 w x p 4 i w w d 9 1 d r r k X B j * r 4 ",
"x < u - | a r a u w f i 9 a 7 a a e 9 a f e u d 4 F g f g v f c j g 9 i 4 p g i r d r i 1 r * X.f $ ",
"d f M ;.T q d w y e z e d y i 9 i 9 p a w 9 a & r 4 4 i g g F g x 8 d w e k i g i r 4 d r x -.J u 4 ",
"f x S l a A 7 y a a 9 A d q d c i l g u w f 2 i g F f f r g k v c Z c c v p r i r 4 k 4 i g g g v : ",
"a z d x x 9 a b y e a y 4 f p l z l 1 1 1 1 1 1 2 2 2 2 2 2 2 2 j g 8 g i 4 i r r v g i d g x B h r ",
"u s x b k n M w y 9 8 y w 1 a u i 4 4 3 3 3 3 : 2 : 2 3 3 3 3 : 4 f g p p u - g r r p r 8 k g v n : ",
"g f d l l b b d 7 7 0 1 l 7 1 1 4 2 : 3 3 3 3 3 : 2 3 3 3 3 3 2 1 1 1 1 9 i 4 : d j p g e 4 f d j 4 ",
"d z y d l n n n y 9 r 1 1 1 1 3 3 3 3 3 3 3 3 3 2 : 3 3 3 3 3 3 3 3 3 1 2 1 1 r d N x v r u u i k d ",
"a d i n f 2 M I x 1 1 1 3 3 3 3 3 3 3 3 3 3 3 3 : 2 3 3 3 3 3 3 3 3 3 3 3 3 1 1 1 h r r f j d d 1 * ",
"a f u l 7 A x n h 1 3 3 3 3 3 3 3 3 3 3 3 3 3 3 : 2 3 3 3 3 3 3 3 3 3 3 3 3 3 3 1 1 g r 4 i j 8 l w ",
"a l z d M l d j 1 1 3 3 3 3 3 3 3 3 3 3 3 3 3 3 2 : 3 3 3 3 3 3 3 3 3 3 3 3 3 3 1 1 i d 7 h g j f : ",
"e e f A j h a 1 1 3 3 3 3 3 3 3 3 3 3 3 3 3 3 3 : 4 3 3 3 3 3 3 3 3 3 3 3 3 3 3 3 1 1 9 : e g e u % ",
"f 0 a i 4 l 1 1 3 3 3 3 3 3 3 3 3 3 3 3 3 3 3 3 2 : 3 3 3 3 3 3 3 3 3 3 3 3 3 3 3 3 1 2 u i d j k 9 ",
"h x 0 x x D 1 3 3 3 3 3 3 3 3 3 3 3 3 3 3 3 3 3 1 1 3 3 3 3 3 3 3 3 3 3 3 3 3 3 3 3 3 1 h r v c x 8 ",
"t d M x M a 1 1 1 1 1 1 2 1 1 1 4 : : 4 1 1 1 4 1 1 1 1 1 1 1 1 1 2 1 1 2 1 1 1 1 1 1 1 g h v N j i ",
"i a f x a                                                                                 4 g 4 i i ",
"i u d w M                                                                                 i g p d h ",
"- u s M h     H H H H H H H H   H H H H H H H H H H H H H H H H H H   H H H H H H H H     i j h x u ",
"s 8 a w i     H H H H H H H H   H H H H H H H H H H H H H H H H H H   H H H H H H H H     e u j @.G ",
"u g < d w     H H H H H H H H   H H H H H H H H H H H H H H H H H H   H H H H H H H H     r w r Y ) ",
"7 h n l l     H H H H H H H H   H H H H H H H H H H H H H H H H H H   H H H H H H H H     U c K D ~ ",
"w i d l 1     H H H H H H H H   H H H H H H H H H H H H H H H H H H   H H H H H H H H     v F c u ) ",
"8 5 x e i     H H H H H H H H                                         H H H H H H H H     p p p n G ",
"% w a M a     H H H H H H H H   H H H H H H H H H H H H H H H H H H   H H H H H H H H     Z K v h f ",
"5 > a a 7     H H H H H H H H   H H H H H H H H H H H H H H H H H H   H H H H H H H H     f g f G j ",
"i d 7 s w     H H H H H H H H   H H H H H H             H H H H H H   H H H H H H H H     e j G F e ",
"i a M i x     H H H H H H H H   H H H H H                 H H H H H   H H H H H H H H     c f f f & ",
"y 1 1 s ;     H H H H H H H H   H H H H         1 1         H H H H   H H H H H H H H     r f e f 2 ",
"y 9 w 7 u     H H H H H H H H   H H H H         1 1         H H H H   H H H H H H H H     c j f k 2 ",
"7 6 y f f     H H H H H H H H   H H H H         1 1         H H H H   H H H H H H H H     a f v x 8 ",
"t ; d q w     H H H H H H H H   H H H H                     H H H H   H H H H H H H H     g 8 u j 1 ",
"h 9 * y 9     H H H H H H H H   H H H H                     H H H H   H H H H H H H H     $ p d r , ",
"4 l u a u     H H H H H H H H   H H H H H H H H H H H H H H H H H H   H H H H H H H H     g d p x 1 ",
"a j M f r     H H H H H H H H   H H H H H H H H H H H H H H H H H H   H H H H H H H H     r i d 7 5 ",
"g p k 7 r     H H H H H H H H                                         H H H H H H H H     1 9 2 f > ",
"g c m c x     H H H H H H H H   H H H H H H H H H H H H H H H H H H   H H H H H H H H     r d p d , ",
"9 r u f u     H H H H H H H H   H H H H H H H H H H H H H H H H H H   H H H H H H H H     i i e q - ",
"g r 4 p 8     H H H H H H H H   H H H H H H H H H H H H H H H H H H   H H H H H H H H     % r u u - ",
"g b u a r     H H H H H H H H   H H H H H H H H H H H H H H H H H H   H H H H H H H H     9 e u a > ",
"r w i h n     H H H H H H H H   H H H H H H H H H H H H H H H H H H   H H H H H H H H     u u d a , ",
"r i Z O.p                                                                                 j G j x 5 ",
"g g M - z                                                                                 ^ d c x , ",
"4 $ 9 c . n w 7 a l a 0 > = s q < 5 i a e r e 9 p - g u p w p < 9 j h g j 9 7 f g 9 u 4 ; p x O f , ",
"p . b M y M y 6 1 q 0 t t > 5 < 5 5 e d 4 a 4 i i p % e u 7 a g 7 w g g j v 4 2 d p 9 h $ h j 4 x q ",
"i 9 a a %.a h b q a q s t s q 5 < w d b d w r d a f a w r p u g j 7 u x J r j p r j x p i g g =.x q ",
"Z j v &.g w f f g a a 5 a a l 0 l d x s x z h w w i i g m r 4 g g c d n r h h }  .L 6 Z t ~ *.C a 8 ",
"+ w 4 4 + : # # O @ O = = @ = 0 % - 6 * % - - - * + + $ % % : * : % 2 $ 7 9 e q 0 , w 2 , ; % 2 6 $ "
};
