/* XPM */
static char *a27e6e0ee1c14898a77bb84003fe9697w1LdOfiuMYNlsDwh[] = {
/* columns rows colors chars-per-pixel */
"50 50 86 1 ",
"  c black",
". c #0D0D0C",
"X c #151412",
"o c #181715",
"O c #201F1D",
"+ c #262525",
"@ c #292524",
"# c #2A2927",
"$ c #272928",
"% c #2B2B2A",
"& c #302F2D",
"* c #31302E",
"= c #2F2F31",
"- c #343433",
"; c #393836",
": c #393738",
"> c #3C3C3A",
", c #403F3E",
"< c #0F4D21",
"1 c #187E37",
"2 c #42413F",
"3 c #413F40",
"4 c #444342",
"5 c #484647",
"6 c #4A4847",
"7 c #47484B",
"8 c #4C4C4C",
"9 c #504F4E",
"0 c #51514F",
"q c #4E4F53",
"w c #4F5053",
"e c #545453",
"r c #595856",
"t c #565759",
"y c #57595A",
"u c #5C5C5B",
"i c #605F5E",
"p c #62615F",
"a c #646362",
"s c #686765",
"d c #696866",
"f c #65666A",
"g c #696768",
"h c #67686A",
"j c #6C6C6B",
"k c #706F6E",
"l c #72716F",
"z c #6F7170",
"x c #747473",
"c c #767877",
"v c #7A7877",
"b c #777978",
"n c #7C7B7A",
"m c #807F7D",
"M c #20A447",
"N c #26C455",
"B c #37D968",
"V c #82817F",
"C c #57DF80",
"Z c #828283",
"A c gray52",
"S c #848486",
"D c #888886",
"F c #868688",
"G c #88888A",
"H c #8B898A",
"J c #8C8B89",
"K c #8E8D8B",
"L c #8F8E8C",
"P c #908E8F",
"I c #91908E",
"U c #92918F",
"Y c gray57",
"T c #959492",
"R c #989697",
"E c #9B9A98",
"W c #9B9B9B",
"Q c #A09F9D",
"! c #A3A3A1",
"~ c #A6A5A3",
"^ c gray68",
"/ c #B1B1AF",
"( c #BFBEBC",
") c #CECDCB",
"_ c LightGray",
"` c #D4D3D1",
/* pixels */
"e4eu48ZAGFAYAYPxxTIn           DPPKKQ!PEvIIvmIKVW,",
"eyead448a8efiyaaxa               ap2rdrduju0i,2i0&",
"l0,diky4tw4ptwte                   8jeisedpe#OpXp6",
"%#;*;#ye4eteua          <<           er;i00dovp-0;",
"j:8-We8te8ue          <<<<<<           t0r9r,9&~i&",
"upn_A8y99e          <<<<<<<<<<           e4i0j`m02",
"ujcstx49          <<<<<<11<<<<<<           2ediij,",
"yaihhe          <<<<<<111111<<<<<<           pdmp0",
"erjz          <<<<<<1111111111<<<<<<           xl2",
"ii          <<<<<<111111MM111111<<<<<<           2",
"          <<<<<<111111MMMMMM111111<<<<<<          ",
"        <<<<<<111111MMMMMMMMMM111111<<<<<<        ",
"      <<<<<<111111MMMMMMNNMMMMMM111111<<<<<<      ",
"    <<<<<<111111MMMMMMNNNNNNMMMMMM111111<<<<<<    ",
"   <<<<<111111MMMMMMNNNNNNNNNNMMMMMM111111<<<<<   ",
"   <<<111111MMMMMMNNNNNNBBNNNNNNMMMMMM111111<<<   ",
"   <<<1111MMMMMMNNNNNNBBBBBBNNNNNNMMMMMM1111<<<   ",
"   <<<111MMMMMNNNNNNBBBBBBBBBBNNNNNNMMMMM111<<<   ",
"   <<<111MMMNNNNNNBBBBBBCCBBBBBBNNNNNNMMM111<<<   ",
"   <<<111MMMNNNNBBBBBBCCCCCCBBBBBBNNNNMMM111<<<   ",
"   <<<111MMMNNNBBBBBCCCCCCCCCCBBBBBNNNMMM111<<<   ",
"   <<<111MMMNNNBBBCCCCCCCCCCCCCCBBBNNNMMM111<<<   ",
"   <<<111MMMNNNBBBCCCCCCCCCCCCCCBBBNNNMMM111<<<   ",
"   <<<111MMMNNNBBBCCCCCCCCCCCCCCBBBNNNMMM111<<<   ",
"   <<<111MMMNNNBBBCCCCCCCCCCCCCCBBBNNNMMM111<<<   ",
"   <<<111MMMNNNBBBCCCCCCCCCCCCCCBBBNNNMMM111<<<   ",
"   <<<111MMMNNNBBBCCCCCCCCCCCCCCBBBNNNMMM111<<<   ",
"   <<<111MMMNNNBBBCCCCCCCCCCCCCCBBBNNNMMM111<<<   ",
"   <<<111MMMNNNBBBCCCCCCCCCCCCCCBBBNNNMMM111<<<   ",
"   <<<111MMMNNNBBBBBCCCCCCCCCCBBBBBNNNMMM111<<<   ",
"   <<<111MMMNNNNBBBBBBCCCCCCBBBBBBNNNNMMM111<<<   ",
"   <<<111MMMNNNNNNBBBBBBCCBBBBBBNNNNNNMMM111<<<   ",
"   <<<111MMMMMNNNNNNBBBBBBBBBBNNNNNNMMMMM111<<<   ",
"   <<<1111MMMMMMNNNNNNBBBBBBNNNNNNMMMMMM1111<<<   ",
"   <<<111111MMMMMMNNNNNNBBNNNNNNMMMMMM111111<<<   ",
"   <<<<<111111MMMMMMNNNNNNNNNNMMMMMM111111<<<<<   ",
"    <<<<<<111111MMMMMMNNNNNNMMMMMM111111<<<<<<    ",
"      <<<<<<111111MMMMMMNNMMMMMM111111<<<<<<      ",
"        <<<<<<111111MMMMMMMMMM111111<<<<<<        ",
"          <<<<<<111111MMMMMM111111<<<<<<          ",
"p           <<<<<<111111MM111111<<<<<<           -",
"ple           <<<<<<1111111111<<<<<<           ee-",
"08eax           <<<<<<111111<<<<<<           eere3",
"0en!rr8           <<<<<<11<<<<<<           uddmdk:",
"apc-fs7ea           <<<<<<<<<<           p8pJJukh-",
"2#6j.cyuath           <<<<<<           ip62;rukOi>",
"r.zbqcq3tftqq           <<           dk22i6p#ps,k5",
"e6tr^taz7t7uwt8                    rjV0sr0lrrpi)g9",
"vjl/p0upirw>tef7h                ikuleiaRQ3mqG(Ve5",
"@622O;+@O++==$$7%-3            :-;#,%3995573::%:,@"
};
