/* XPM */
static char *f8504cc95e074962a056b19d8396b8bauEpKPpPuhm5WRZMe[] = {
/* columns rows colors chars-per-pixel */
"50 50 132 2 ",
"   c #0D0D0C",
".  c #151412",
"X  c #181715",
"o  c #1F1E1C",
"O  c #201F1D",
"+  c #24231F",
"@  c #242323",
"#  c #282623",
"$  c #2A2926",
"%  c #2C2B2B",
"&  c #302F2D",
"*  c #32312F",
"=  c #2D2E32",
"-  c #343433",
";  c #383735",
":  c #3A3937",
">  c #353639",
",  c #393738",
"<  c #373938",
"1  c #3C3C3B",
"2  c #413F3D",
"3  c #42413F",
"4  c #3D3E40",
"5  c #413F40",
"6  c #444443",
"7  c #484745",
"8  c #494946",
"9  c #454649",
"0  c #47484B",
"q  c #4C4C4B",
"w  c #504F4C",
"e  c #52514E",
"r  c #4E4F52",
"t  c #4F5152",
"y  c #555453",
"u  c #585754",
"i  c #5A5956",
"p  c #565759",
"a  c #57595A",
"s  c #5C5C5B",
"d  c #605F5D",
"f  c #62615E",
"g  c #646463",
"h  c #686765",
"j  c #6A6966",
"k  c #646569",
"l  c #67686A",
"z  c #6C6C6B",
"x  c #706F6D",
"c  c #72716E",
"v  c #6F7171",
"b  c #747371",
"n  c #777370",
"m  c #757470",
"M  c #747472",
"N  c #767573",
"B  c #747474",
"V  c gray46",
"C  c #777674",
"Z  c #767676",
"A  c #737372",
"S  c #787775",
"D  c #787775",
"F  c #767877",
"G  c #797874",
"H  c #7A7975",
"J  c #797876",
"K  c #7A7977",
"L  c #7C7875",
"P  c #7A7976",
"I  c #777978",
"U  c gray47",
"Y  c #797979",
"T  c #7B7B7B",
"R  c #7C7B79",
"E  c #7D7C7A",
"W  c #7C7C7C",
"Q  c #7E7E7E",
"!  c #7C7B7A",
"~  c #807F7D",
"^  c #817D7C",
"/  c #81807E",
"(  c #82817F",
")  c #82817F",
"_  c #817F80",
"`  c #818181",
"'  c #838280",
"]  c #838383",
"[  c #848381",
"{  c #858482",
"}  c #868583",
"|  c #858585",
" . c gray53",
".. c #868686",
"X. c #838382",
"o. c #888785",
"O. c #888785",
"+. c #8A8987",
"@. c #8A8985",
"#. c #8C8B89",
"$. c #8E8D8B",
"%. c #8F8E8C",
"&. c gray56",
"*. c #8B8B8A",
"=. c #928E8D",
"-. c #91908E",
";. c #92918F",
":. c #909090",
">. c gray57",
",. c #939290",
"<. c #959492",
"1. c #969593",
"2. c #949493",
"3. c #989795",
"4. c #999798",
"5. c #989898",
"6. c #9D9C9A",
"7. c #9C9B9B",
"8. c #A09F9D",
"9. c #A1A09E",
"0. c #A2A19F",
"q. c #A3A2A0",
"w. c #A4A3A1",
"e. c #A6A5A3",
"r. c #A3A3A1",
"t. c #ADACAA",
"y. c gray68",
"u. c #B3B3B1",
"i. c #BEBDBB",
"p. c #CECDCB",
"a. c #D4D3D1",
"s. c gray84",
/* pixels */
"y 6 y s 6 q ] ......| >.] >.>.A x <.-.! 0.} s t.9.[ ( 9.0.w.@.%.$.$.) 8.r.@.,.6.H -.,.H ~ ,.$.) 3.< ",
"w a y g l 6 6 q g q y l s s g g Z g y e h f G j f s z c f i j f g f i d s 3 s j s z s e f : 3 f i * ",
"A y 4 k d v s 4 p t 5 d p t y y y s d 7 h h z f c i d P 6 h c i 6 h i 6 j w 3 h u h f u $ O f . f 3 ",
"% % < % 1 $ p y 6 y a y d g < a u e i h 7 1 e q f ~ f u f 8 q z i 3 u w w s 3 2 s e e h X G h * e 1 ",
"l 1 y - 5.p q a y q d y 7 i 6 i i q q i s r u s 2 ^ h d f j d x j f 3 u 3 i j u y u w y 1 w * e.s & ",
"d s F s.| 0 s q t t l t s t p 0 y 0 p i q 8 a % 3 2 w u h f ^ f z q d w w j y s u y 6 d e x a.~ y 3 ",
"d l U k a U 6 r p i 7 I s 0 s z i l f t q s 6 u f ^ f f u h j ^ x m x z m u y u q 3 h 3 y h i f x : ",
"a l s z z 8 p A t t y t 6 d p h z g s p 0 y e , u e 2 u f e u 3 j j 3 f u 3 y e e m s i d f z E h e ",
"y a z A l A Z t y 0 7 t q 1 i y u e u 3 u 3 e u ^ 3 u u d ^ u u 3 d f s u y < f w e i w 3 j d m m : ",
"g s s k z v x a 1 6 q 1 k 7 - t 3 3 u e 3 u d u ^ h 2 3 i d ^ ^ w 3 e e 3 u 3 : d h i f e 3 i d h 6 ",
"s z y a l z B B t 7 q y i l p y 3 8 u i f i j d ^ x ^ e w 7 7 u d i i f u e u e s G x c e i e u h s ",
"p s y A d 5 Z ` z t p 5 B p g y s 3 3 3 d i h 3 h d 3 ^ ^ 7 7 ^ u f s s * u 3 q d g e e f j f f < * ",
"y g y g 6 U z B g s q y s t q s * i i w 3 x d d ^ u ^ h d ^ d e w f u e j 3 w d 3 : g y 3 i j 3 j w ",
"a k l s Z k s k v f Z a g f 0 0 u i e 6 u w ^ d ^ d u d ^ ^ e ^ s z 3 x e y f i e g u i 3 j h h s < ",
"q q g U k k y g v W A z d 0 l s s i f 3 i h ^ u ^ h u ^ ^ 3 e 2 y z j 3 w : - i h y h 3 : 3 h 3 y * ",
"g 6 y p 3 j x z k U h g l f y p 7 w j d 3 w f u / ) u d w ^ ^ ) u w w 3 i i w 3 f h s H u u f j j 3 ",
"g z 0 l z T g v h v z a y l s 0 q k u c f 8 i f g z x i q H z j h i e 3 x 3 f 3 i h x h h u m x x 6 ",
"r s F z B s W A ..z B y f i F g v 3 y w u M z t f I f z m w u h 3 f x d u h f j h d e m f x m m h i ",
"p p d l s T v U B I t g l z i c t k v t i s q s x H ~ j d H j h j e x u x d d e x 3 h 3 3 3 f 3 i y ",
"i y d q A v v Q ! q l c l W F t s z d s j u a g z z z z e j u d e u : j u u 3 f 3 3 d m 3 u f i s g ",
"* y s A g l r l ! l g v 9 s k l f z f t z j h s u u m x x f i 3 f u d 3 i : q f d 3 f 3 3 d h f x u ",
"s 9 s q y v I y l g f d c p i z k a M t 6 c x e m m i h 3 e m j f x u u f w w i i i 3 u 3 e u j 0.~ ",
"t f > d q s g I y z p B g k g g q g t k f k z z x x h i j h j h h 3 3 i i f f q i u f h H u 3 u [ =.",
"9 f B g g 1 s t | ` ..z v a g h g q w s s z M c 3 G ) i d i 3 u u i w i 1 i c H j H 3 x i ) m ) E @.",
"r y s g 1 p h g l ) z z B q q z f f ) a h h F I ) h ) j j f d u w f x w f f e u x 3 i d h n ^ j y =.",
"9 5 x q p p i p l s ) I v f k d s &.h a q a f h e j d G e f j 3 q w 3 f i f i f 3 d h / h i i u n ~ ",
"% q i B s y < d f v I l 0 p d s k l a a g s v s d h j j j e u : w f f s i e f x n j i 3 h ^ ) ^ g d ",
"4 > s p 6 s p < s p g a z 0 w 0 a a I a s g i i h i 3 h 3 i d w 3 f f e f f 3 f e 3 f d 2 u f d ^ h ",
"y a 6 p q p z y t F 1.` F F 6 a s I f M a 6 s a f x h < h h y x i e x G f m m e i 3 f n ^ w f ^ ^ q ",
"i i I i l t s l s v I h a t v g ' f f v f z t s e j d H x f w w m f u f u d f f u f 3 i d j i f d - ",
"t 1 4 a > s x l d v g v z v f v l q  .0 a a y 1 f e i y j w d j u 3 f u i j e 3 u 3 d G d w d e d 2 ",
"t 8 q 6 y p y y s t v  .d s M g s *.I l f g 1 j e i d z w x d i u G c / m x j j 3 u j / d n h d j 2 ",
"6 6 t s s s 1 y f v I z p s z z l d i q g ` W t f 0 f s i q y t h c H c x y x i f j d s j u s c z 7 ",
"q < s q q s y = y l h l z 6 g l u d x q Q >.p q l 4 4 f t 8 f s 7 j f z j c 8 f u : f 7 ; f 8 y h 1 ",
"h 0 * t 0 e g y - s l x Q z y f j x c C 4 Q p 0 i g 4 9 q e u i z u d 8 e G e 1 e 7 7 i 3 $ u s t ; ",
"1 k y p y t a z p a k j l z p t x f 7 i g d ..>.a l a g e u q s f s ; u e x x f u d 8 7 8 f s s z 1 ",
"y j G d e w y 8 s s p g B q f 0 8 q c ; i C 6.0 I 0 y u x q u f g j i * w 8 e e q 8 w y 2 e u s 6 4 ",
"f s j 6 e f 6 y z i t z f > 0 q 6 h c g <.) 6 h i i d x u d f u d h q 3 s e 8 i 3 e i 8 3 1 q 2 g - ",
"f z Z z z i f j v z g s q a q s j q z #.z i G u y w 6 f s i w s f s i f d 8 e y q z 3 w f e i s s , ",
"8 e u f u e s q k t 8 q p < q t w i i 1 z H z 8 f < 6 e i e h i u l y : y y 1 u f q z 3 & y u q q - ",
"f e 5 i 7 7 ! h 1 p p y p f > t 8 q s d 8 x h w i d 8 i d f I ) y 8 i 8 u z u 2 3 w q d 3 % e u p = ",
"f x y s e g i q 0 d y y 5 f q 8 w t 7 i f j 8 i y g f f f < q f f s l j M j M w w w w e u 8 w e p > ",
"e w y f B 1 t < g s k 6 r a f t g 6 d d l f ( 3 8 w u e $.H s z z j m G u y u s u e 3 3 2 u u i p , ",
"t y ! r.i u 0 y f p t g r 0 d f 8 0 i e y c u w u f u ) g s g 8 w u s w G f s y u 3 i q s f ~ j z 1 ",
"f f I - l l s a k p l r 4 k p 9 q f t p s i y f l f f h 3 s t y e f 2 f j u u e 8 f q w f $.d x z > ",
"3 $ 8 x   B r 5 p k p 0 > = p 0 < 4 p p q e w 8 u - f y a q a < 8 j j f j 8 3 f f 8 e 3 ; i x o d , ",
"a   v I t B t 4 4 9 4 r 0 4 4 4 4 < q s 3 u 3 u i i $ w t 7 u f 3 w f f j x 3 2 s u 8 f % f f 3 z q ",
"y 7 a i y.p k v 0 t 0 p r p 9 4 < r d c a w t a i s i w e a u f j 3 y z ) e j i y f x i i f f p.l r ",
"E f M u.f q d d d a p 4 i t k 9 k d z a z l f w q u i f G w 3 f f x s c y g g 5.7._ 5 Y e *.i.L p 6 ",
"+ e 3 3 + : @ # + @ O = = @ = 0 & = 3 = % - - - - + + $ % % ; * < & 2 $ 6 7 r 8 6 , q 4 , , & 1 5 $ "
};
