/* XPM */
static char *_903965e4e6c4ab69004880eefc6ddf52N1bEtvkalGfrs2X[] = {
/* columns rows colors chars-per-pixel */
"50 50 86 1 ",
"  c black",
". c #0D0D0C",
"X c #151412",
"o c #181715",
"O c #1F1E1C",
"+ c #201F1D",
"@ c #24231F",
"# c #242323",
"$ c #282623",
"% c #2A2926",
"& c #2C2C2B",
"* c #302F2D",
"= c #32312F",
"- c #2D2E32",
"; c #343433",
": c #383735",
"> c #3A3936",
", c #353639",
"< c #393738",
"1 c #373938",
"2 c #3C3C3B",
"3 c #533322",
"4 c #403F3D",
"5 c #4F432D",
"6 c #42413F",
"7 c #6B4530",
"8 c #3D3E40",
"9 c #413F40",
"0 c #444443",
"q c #484745",
"w c #494846",
"e c #454649",
"r c #47484C",
"t c #4C4C4B",
"y c #504F4D",
"u c #51514E",
"i c #4E4F52",
"p c #4F5152",
"a c #545453",
"s c #585755",
"d c #5A5956",
"f c #565759",
"g c #57585C",
"h c #5C5C5B",
"j c #605F5D",
"k c #62615E",
"l c #646463",
"z c #686764",
"x c #6A6966",
"c c #646569",
"v c #67686A",
"b c #6C6C6B",
"n c #706F6D",
"m c #72716F",
"M c #6F7171",
"N c #747373",
"B c #787775",
"V c #767877",
"C c #7B7976",
"Z c #777978",
"A c #7B7B7A",
"S c #807E7D",
"D c #14951C",
"F c #83827F",
"G c #3C4AB7",
"H c #817F80",
"J c #848483",
"K c #888785",
"L c #8A8986",
"P c #8D8C8B",
"I c #928E8D",
"U c #92918F",
"Y c #949392",
"T c #989795",
"R c #999798",
"E c #A09F9D",
"W c #A2A19F",
"Q c #A4A3A1",
"! c #ADADAC",
"~ c #B4B3B1",
"^ c #BEBDBB",
"/ c #D4A78E",
"( c #CECDCB",
") c #D5D5D4",
"_ c #EDE9E8",
"` c white",
/* pixels */
"a0ffqtJJKKJYJYUNMTUAQKd!EFFWWWLIUULEWPUECPUCFUPFT2",
"afulb09tltavhglkNkaullZxkdbmkdxkkkahawhn_nduk>6ka=",
"Na8ckbh0sp0hfpffuhk77777777777776zh6zy6k_zks&OkXk6",
"&%1&2&fp0afahl1fsu7777777777777776syydw___uzoCk:u6",
"b2a;Rfpfathaesqasp77///////////77kwawdx___yd2y*Wh&",
"hhV)Kehtpabphpfqsq7//333///333//7whywxs___6jan)Fs6",
"hbAcfZ0pfseZhthMfc///```3/3```///Bnnmdu___z6akhkn>",
"fvhbbrsMppsp6jfcbz///`D`///`D`///kwka6s___jshknCku",
"afbNvNViaeqpw4saat///```///```///jkhda=___sy6xkmB4",
"lhhcvNbh2qr2cq;a0q///////////////wuywsw___dka6kdk6",
"hvuhbbNNpquafbsu8e///////////////hskuus___nmyssaxh",
"shsNh4VJbpa0Nflfh2///////////////khd=s6___yukxkk2=",
"fkal0ZbNlftfsatj;sd/////////////yksakwy___ks6dz6xw",
"fcvhVvhcMlVflkrqshu7777777777777hx6nusk___ss6kkzj>",
"ptkZccslbAMbhtcfjsk67777///77774snx6y>;___ky>ykya&",
"jqfs6cbbbAclbjffqtxj0777777777BFsyy6dsu___sVssdxxw",
"kbebMAlnlNvhabhttlfmlqs77777tCnxzdu6xyk___nzzummn0",
"ihVbNhAMKbNakfNlN0atsNb     mudk6knjskk___uBzxmCzs",
"gfjbgAMAVVtlvbsMavMusj       Cnkxyxsxjk___k666k6sa",
"fajtNbNAAtbNvAVphbhhx         skas3kd55555556sjdjl",
";ahNlbtcZclMqhcbjbhp           wkskyd>q///j66dzzna",
"h0fifbAablkjMfsbcfNa           kkksdku/////d6usxWS",
"pj<higcZabgMkclltcu             ky6sh///////Ca6uJI",
"qlNcl2hpJJKbNflcltt             ssyh2///////hFBFAP",
"tfhl2fzlvHbbNtpbll               zxtj///////kSSnaI",
"q4bpffsfvhHZMjcjhU               uwjdj/////mkdddmS",
"&tfNha2hlMAbiahhzz               kzhhuj///huzSFmzj",
"8,hs6hf2hakfbettf                 duzj6k5ykk3sjjSz",
"ah0gtfbatATJVV0fl                 mmkmm5G5dmSwzSSw",
"ssBfvahvhbZcfaMlH                 azsjkd5ktslbjjj=",
"p24g;hbvkNcbbnhNb                 kshxutj2uBj5ssj4",
"ptt0afafhfbLkfVlf                 mAmnxzwubCjSzjx4",
"90pjhg8pknZnfhnvb                 Annsnsjzjhzdjmxw",
"p;gttha;fvzxvelvs                 kbxnwls:kq:kquz4",
"lq=ptula;hzMAbplx                 jquBu:a0wdq%dhu,",
"8lfsuugvsglvvbaan                 :sunnzsjwqwkhhb9",
"szBjuyfwhhflVthet                 s=ywyuyqys4usd99",
"lhx0ukqabftnj2tt0                 t6juwdqusw42w4k;",
"knBnndjznnlhtgthb                 hkjquaqxqwkuhhj,",
"quajauhtcpets1ptt                 a:as2skwx6*ssyt;",
"ku6dqwAz2gfphk,tw                 dwdxs4wytjq%usf-",
"knahulstejaa4krty                 xzNxNyutyuawyaf<",
"uyskN>p1lhleihkpc                 BNsssdsu064auhf<",
"usAQsdrpkgplprhlr                 hyBkjus4dwdzSxv8",
"kkV;vvghjgvr8cfee                 4zzsfuqkwtkIhnb<",
"6%wn.Vp9gcfe,-fe2                 lkxqqjkwa6:dn+j9",
"d.MVpZg88reii,880                 kkxn64jswl%lz4n9",
"swff!pkMrprgige81thNspuhdjhtahdkz0sbFuzsuznsskj(vy",
"Azm~zwkjhgf2ffcechnfbvltyadkCy6kjnhmillREH9AiP^Bf9",
"$w64O>#$+%#-&#-r-;4-%;;;=@@%*%:=:*2&0wtt9<t9<<&49&"
};
