/* XPM */
static char *_bf6845e6e40487fddbcc2d6f8691f78JMoNtcVhDduSDaGS[] = {
/* columns rows colors chars-per-pixel */
"50 50 51 1 ",
"  c black",
". c #010101",
"X c #020202",
"o c gray1",
"O c gray2",
"+ c #060606",
"@ c #070707",
"# c gray23",
"$ c #3C3C3C",
"% c gray24",
"& c #3E3E3E",
"* c #3F3F3F",
"= c gray25",
"- c #414141",
"; c gray26",
": c #434343",
"> c #444444",
", c gray27",
"< c #464646",
"1 c gray28",
"2 c #484848",
"3 c #5B5B5B",
"4 c gray37",
"5 c #5F5F5F",
"6 c #606060",
"7 c gray38",
"8 c #626262",
"9 c gray39",
"0 c #646464",
"q c #656565",
"w c gray40",
"e c #676767",
"r c #686868",
"t c DimGray",
"y c #6A6A6A",
"u c #767676",
"i c gray47",
"p c #797979",
"a c gray48",
"s c #7B7B7B",
"d c #7C7C7C",
"f c gray49",
"g c #7E7E7E",
"h c gray50",
"j c #808080",
"k c #818181",
"l c gray51",
"z c #838383",
"x c #848484",
"c c #868686",
"v c gray53",
/* pixels */
":8w8ww8w8w8w8w8w8w8w8w8w8w8w8w8w8w8w8w8ww88w8www5>",
"::8w88w8w8w8w8w8w8w8w8w8w8w8w8w8w8w8w8w888w8ww85>*",
"*::8www88w8w8w8w8w8w8w8w8w8w8w8w8w8w8w8ww88r88w:**",
":*::5w8ww8w8w8w8w8w8w8w8w8w8w8w8w8w8w8w8w8ww88*:::",
"*:*::8w58w8w8w8w8w8w8w8w8w8w8w8w8w8w8w8w8w88w:**::",
"**::::8ww8w8w8w8w8w8w8w8w8w8w8w8w8w8w8w8ww88*::***",
":**:*:>88w8w8w8w8w8w8w8w8w8w8w8w8w8w8w8ww8w**:*:*:",
"*:**:*::w8w8w8www8w8w8w8w8w8w8w8w8w8w8www5::::*::*",
":*:*:*:**8w88w8wwwwwwwww8wwwww8ww88w8w885>*:**>**:",
"*:*:*:*::*8885w8888888888w888ww88ww8w88w>**:*::*:*",
":*:*:*:*#:XXXXXXXXXXXXXXXXXXXXXXXXXX+XXX**:::*:**:",
"*:*:*:*:::XhhhhhhhhhhhhhhhhhhhhhhjshhjhX::***::::*",
":*:*:*:*::XhhhhhhhhhhhhhhhhhhhhhjhhhjjuX::**:****:",
"*:*:*:*:**+shhhjhhhhhhhhhhhhhhhhhhhjhhjX***::**::*",
":*:*:*:**:XhhhhhhhhhhhhhhhhhhhhhhjjshjsX:::::**:*:",
"*:*:*:*::*XjsjsjhhhhhhhhhhhhhhhhhjhjhhjX**:**::*:*",
"*:*:*:*:**XhhhhhhhhhhhhhhhhhhhhhhshhhhsX*:*:*:*::*",
":*:*:*:*::XhhhhhhhhhhhhhhhhhhhhhhhhhhhhX:*:*:*:**:",
"*:*:*:*:*:XhhhhhhhhhhhhhhhhhhhhhhhhhhhhX*:*:*:*::*",
":*:*:*:**:XhhhhhhhhhhhhhhhhhhhhhhhhhhhhX:*:*:*:**:",
"*:*:*:*:*:XhhhhhhhhhhhhhhhhhhhhhhshhhhhX*:*:*:*::*",
":*:*:*:**:XhhhhhhhhhhhhhhhhhhhhhhhhhhhsX:*:*:*:**:",
"*:*:*:*:**XhhhhhhhhhhhhhhhhhhhhhhhhhhhhX*:*:*:*::*",
":*:*:*:*::XhhhhhhhhhhhhhhhhhhhhhhhhhhhhX:*:*:*:**:",
"*:*:*:*:*:XhhhhhhhhhhhhhhhhhhhhhhshhhhsX:*:*:*:*:*",
":*:*:*:**:XhhhhhhhhhhhhhhhhhhhhhhhhhhhhX*:*:*:*:*:",
"*:*:*:*:*:XhhhhhhhhhhhhhhhhhhhhhhhhhhhhX:*:*:*:*:*",
":*:*:*:**:XhhhhhhhhhhhhhhhhhhhhhhhhhhhhX*:*:*:*:*:",
"*:*:*:*:*:XhhhhhhhhhhhhhhhhhhhhhhshhhhhX:*:*:*:*:*",
":*:*:*:**:XhhhhhhhhhhhhhhhhhhhhhhhhhhhsX*:*:*:*:*:",
"*:*:*:*:*:XhhhhhhhhhhhhhhhhhhhhhhhhhhhhX:*:*:*:*:*",
":*:*:*:**:XhhhhhhhhhhhhhhhhhhhhhhhhhhhhX*:*:*:*:*:",
"*:*:*:*:*:XhhhjshhhhhhhhhhhhhhhhhjhjjhjX*:*:*:*::*",
":*:*:*:*:*XhhhhchhhhhhhhhhhhhhhhjjjsjjhX:*:*:*:**:",
"*:*:*:*:*:XsjhhshhhhhhhhhhhhhhhhhjsjjhsX*:*:*:*::*",
":*:*:*:*::XhhjhjhhhhhhhhhhhhhhhshjshhjhX:*:*:*:**:",
"*:*:*:*:*#+hhjshhhhhhhhhhhhhhhhhhschhhuX*:*:*:*::*",
":*:*:*:*:*XhhhjhhhhhhhhhhhhhhhhhjshjhhcX:*:*:*:**:",
"*:*:*:*:*>XhhhhjhshhshhhhhhhshhhhjhhshsX*:*:*:*::*",
":*:*:*:*:*XXXXXXXXXXXXXXXXXXXXXXXXXXXXXX:*:*:*:**:",
"*:*:**::*:8www8ww8w8w8w8w8w8w8w8w8w8w8w8:**>*::*:*",
":*:*::**:8w888w88w8w8w8w8w8w8w8w8w8w8w8w8::#>:*:*:",
":*::#:>:8w5wr5r8w8w8w8w8w8w8w8w8w8w8w8w8ww*:*:*::*",
":*:::*:8r8ww88ww8w8w8w8w8w8w8w8w8w8w8w8w888::*:**:",
"*:#:2*8w8ww58r8ww8w8w8w8w8w8w8w8w8w8w8w8www8::*::*",
":*:*#ww8w88wrw888w8w8w8w8w8w8w8w8w8w8w8w88w88::**:",
"**>*8w5w88wr85www8w8w8w8w8w8w8w8w8w8w8w88w8ww8:*:*",
"::>8w8w8ww88ww8w8w8w8w8w8w8w8w8w8w8w8w8ww8w88w8:*:",
"*:w88w8ww8w8w8w8w8w8w8w8w8w8w8w8w8w8w8w8w8w8w8w8>*",
":38ww8w88w8w8w8w8w8w8w8w8w8w8w8w8w8w8w8w8w8w8w8w5:"
};
